<svg preserveAspectRatio="none" width="100%" height="100%" overflow="visible" style="display: block;" viewBox="0 0 89 89" fill="none" xmlns="http://www.w3.org/2000/svg">
<g id="Layer_1" clip-path="url(#clip0_0_54)">
<path id="Vector" d="M89 44.4636C89 19.8667 69.0605 0 44.5364 0C20.0123 0 0 19.9395 0 44.4636C0 68.9877 19.9395 88.9272 44.4636 88.9272C68.9877 88.9272 88.9272 68.9877 88.9272 44.4636M3.27473 44.4636C3.27473 21.7588 21.7588 3.27473 44.4636 3.27473C67.1684 3.27473 85.6525 21.686 85.6525 44.4636C85.6525 67.2412 67.1684 85.6525 44.4636 85.6525C21.7588 85.6525 3.27473 67.2412 3.27473 44.4636Z" fill="var(--fill-0, white)"/>
<path id="Vector_2" d="M72.4808 26.3434H69.2061V29.6909H65.9313V26.3434H62.5838V29.6909H59.3091V26.3434H56.0343V32.9657H72.4808V26.3434Z" fill="var(--fill-0, white)"/>
<path id="Vector_3" d="M32.9657 26.3434H29.6909V29.6909H26.3434V26.3434H23.0687V29.6909H19.794V26.3434H16.5192V32.9657H32.9657V26.3434Z" fill="var(--fill-0, white)"/>
<path id="Vector_4" d="M52.7596 16.4464H49.4121V19.794H46.1374V16.4464H42.8626V19.794H39.5151V16.4464H36.2404V23.0687H52.7596V16.4464Z" fill="var(--fill-0, white)"/>
<path id="Vector_5" d="M65.9313 56.0343H79.103V52.7596H72.5536L67.6051 39.5879L72.5536 36.3132H56.0343L60.9828 39.5879L56.0343 52.7596H52.7596V26.4162H36.3132V52.7596H33.0384L28.0899 39.5879L33.0384 36.3132H16.5192L21.4677 39.5879L16.5192 52.7596H9.96975V56.0343H23.1415C23.4325 66.2224 31.2191 72.6263 44.5364 72.6263C57.8536 72.6263 65.6402 66.2224 65.9313 56.0343ZM64.2576 42.5715L69.2061 52.6868H59.3091L64.2576 42.5715ZM42.8626 29.6909H46.1374V36.3132H42.8626V29.6909ZM39.5879 44.4636C39.5879 41.6983 41.7711 39.5151 44.5364 39.5151C47.3017 39.5151 49.4849 41.7711 49.4849 44.4636V52.6868H39.5879V44.4636ZM19.7939 52.7596L24.7424 42.6443L29.6909 52.7596H19.7939ZM26.3434 56.0343H62.5838C62.1472 60.0368 56.9804 60.9828 44.4636 60.9828C31.9469 60.9828 26.78 60.0368 26.3434 56.0343ZM44.4636 67.5323C37.0409 67.5323 30.3459 66.5863 27.7261 61.9289C31.1464 64.1848 37.9141 64.2576 44.4636 64.2576C51.0131 64.2576 57.7809 64.1848 61.2011 61.9289C58.5814 66.659 51.8863 67.5323 44.4636 67.5323Z" fill="var(--fill-0, white)"/>
</g>
<defs>
<clipPath id="clip0_0_54">
<rect width="89" height="89" fill="white"/>
</clipPath>
</defs>
</svg>
