<svg preserveAspectRatio="none" width="100%" height="100%" overflow="visible" style="display: block;" viewBox="0 0 64 20.6773" fill="none" xmlns="http://www.w3.org/2000/svg">
<g id="Group 74">
<circle id="Ellipse 1" cx="8" cy="10.6773" r="7.5" stroke="var(--stroke-0, white)"/>
<line id="Line 15" x1="13.8193" y1="15.7894" x2="18.3536" y2="20.3237" stroke="var(--stroke-0, white)"/>
<path id="Vector" d="M54.5 0.5C55.3036 0.5 55.8984 1.10326 55.8984 1.77344V2.31055C55.8984 2.49916 55.8504 2.69228 55.7578 2.86523L55.4424 3.45312C55.3106 3.69944 55.3305 3.98389 55.4736 4.20703C55.6191 4.43341 55.8685 4.55855 56.1221 4.55859H62.5781C63.1172 4.55859 63.5 4.96092 63.5 5.38672C63.4999 5.78696 63.1542 6.17777 62.6543 6.21582H62.6533L57.7002 6.60059C57.3232 6.62915 56.9893 6.93589 56.9893 7.35254V8.40039L56.9941 8.43457L58.377 18.3623V18.3633C58.406 18.5833 58.336 18.8075 58.1748 18.9766C58.0056 19.1539 57.7574 19.2627 57.4893 19.2627C57.1019 19.2626 56.782 19.0349 56.6572 18.7422L56.6162 18.6133L55.2549 12.2598L55.2529 12.251L55.2109 12.124C55.0897 11.8415 54.807 11.6611 54.5 11.6611C54.1493 11.6611 53.8296 11.8966 53.7471 12.251L53.7451 12.2598L52.3838 18.6133C52.3074 18.9664 51.9576 19.2626 51.5107 19.2627C51.2426 19.2627 50.9944 19.1539 50.8252 18.9766C50.6602 18.8036 50.5913 18.5802 50.6221 18.3701V18.3672L52.0059 8.46582L52.0107 8.43164V7.35254C52.0107 6.93553 51.6762 6.62869 51.2988 6.60059H51.2998L46.3477 6.21582H46.3486C45.8443 6.17382 45.5001 5.78023 45.5 5.38672C45.5 4.96359 45.8799 4.55859 46.4219 4.55859H52.8779C53.1315 4.55855 53.3809 4.43341 53.5264 4.20703C53.6648 3.99126 53.6931 3.70069 53.5557 3.45117H53.5566L53.2451 2.87402C53.1502 2.69306 53.1016 2.49856 53.1016 2.31055V1.77344C53.1016 1.10326 53.6964 0.5 54.5 0.5Z" stroke="var(--stroke-0, white)"/>
</g>
</svg>
