<svg width="538" height="57" viewBox="0 0 538 57" fill="none" xmlns="http://www.w3.org/2000/svg">
<g clip-path="url(#clip0_10_82)">
<path d="M55.1647 7.11182H41.0979L9.89395 34.5621V7.11182H0V55.8715H9.89395V45.558L27.4511 30.6519L44.0898 55.8715H56.923L35.1931 24.1173L55.1647 7.11182Z" fill="white"/>
<path d="M74.2702 7.11182H64.3763V55.8715H108.256V47.5262H74.2702V7.11182Z" fill="white"/>
<path d="M143.502 7.11182L113.82 55.8715H125.236L131.22 45.558H167.725L173.787 55.8715H185.203L155.495 7.11182H143.502ZM136.048 37.2126L149.564 14.0138L162.948 37.2126H136.048Z" fill="white"/>
<path d="M199.926 7.11182H190.032V55.8715H199.926V7.11182Z" fill="white"/>
<path d="M246.955 7.11182H212.129V55.8715H222.023V36.8452H246.955C256.35 36.8452 263.331 31.9115 263.331 22.0179C263.331 13.8563 257.059 7.11182 246.955 7.11182ZM245.223 28.7099H221.945V15.2734H245.223C250.944 15.2734 253.437 17.2941 253.437 22.0179C253.437 26.7417 250.918 28.7099 245.223 28.7099Z" fill="white"/>
<path d="M273.278 55.8715H319.257V47.5262H283.172V34.982H318.627V27.2403H283.172V15.4046H319.257V7.11182H273.278V55.8715Z" fill="white"/>
<path d="M398.54 13.0428C398.54 9.49994 396.099 7.11182 391.638 7.11182C387.596 7.11182 384.736 9.47369 384.736 13.0428C384.736 16.6118 387.596 18.9737 391.638 18.9737C396.099 18.9737 398.54 16.6118 398.54 13.0428Z" fill="white"/>
<path d="M306.922 0H285.639V3.83149H306.922V0Z" fill="white"/>
<path d="M353.689 7.11182H330.778V55.8715H353.689C371.246 55.8715 382.111 47.6574 382.111 31.4917C382.111 15.3259 371.325 7.11182 353.689 7.11182ZM353.689 47.5262H340.672V15.4046H353.689C365.394 15.4046 372.768 21.1781 372.768 31.4917C372.768 41.8052 365.446 47.5262 353.689 47.5262Z" fill="white"/>
<path d="M440.714 6.00977C421.687 6.00977 403.841 16.1921 394.682 31.4918C385.523 46.8178 391.218 57.0001 410.245 57.0001C429.272 57.0001 447.17 46.8178 456.329 31.4918C465.488 16.1658 459.793 6.00977 440.688 6.00977M446.461 31.4918C440.005 42.2777 428.012 48.6286 415.257 48.6286C402.503 48.6286 398.146 42.2777 404.602 31.4918C411.058 20.7059 423.104 14.2763 435.78 14.2763C448.456 14.2763 452.917 20.6797 446.461 31.4918Z" fill="white"/>
<path d="M528.106 7.11182L507.163 42.2251L491.601 7.11182H482.625L453.495 55.8715H463.389L484.357 20.7582L499.841 55.8715H508.896L538 7.11182H528.106Z" fill="white"/>
</g>
<defs>
<clipPath id="clip0_10_82">
<rect width="538" height="57" fill="white"/>
</clipPath>
</defs>
</svg>
