<svg preserveAspectRatio="none" width="100%" height="100%" overflow="visible" style="display: block;" viewBox="0 0 359 38" fill="none" xmlns="http://www.w3.org/2000/svg">
<g id="Layer_1" clip-path="url(#clip0_0_42)">
<path id="Vector" d="M36.8106 4.74125H27.4241L6.6021 23.0414V4.74125H0V37.2477H6.6021V30.372L18.3178 20.4346L29.4205 37.2477H37.984L23.4839 16.0783L36.8106 4.74125Z" fill="var(--fill-0, white)"/>
<path id="Vector_2" d="M49.5595 4.74125H42.9574V37.2477H72.2378V31.6842H49.5595V4.74125Z" fill="var(--fill-0, white)"/>
<path id="Vector_3" d="M95.7567 4.74125L75.9504 37.2477H83.5682L87.561 30.372H111.92L115.966 37.2477H123.584L103.76 4.74125H95.7567ZM90.7832 24.8085L99.802 9.34254L108.733 24.8085H90.7832Z" fill="var(--fill-0, white)"/>
<path id="Vector_4" d="M133.408 4.74125H126.806V37.2477H133.408V4.74125Z" fill="var(--fill-0, white)"/>
<path id="Vector_5" d="M164.79 4.74125H141.551V37.2477H148.153V24.5635H164.79C171.059 24.5635 175.717 21.2744 175.717 14.6786C175.717 9.23757 171.532 4.74125 164.79 4.74125ZM163.634 19.14H148.101V10.1823H163.634C167.452 10.1823 169.115 11.5295 169.115 14.6786C169.115 17.8278 167.434 19.14 163.634 19.14Z" fill="var(--fill-0, white)"/>
<path id="Vector_6" d="M182.354 37.2477H213.036V31.6842H188.957V23.3214H212.616V18.1602H188.957V10.2698H213.036V4.74125H182.354V37.2477Z" fill="var(--fill-0, white)"/>
<path id="Vector_7" d="M265.94 8.69521C265.94 6.33333 264.312 4.74125 261.334 4.74125C258.638 4.74125 256.729 6.31584 256.729 8.69521C256.729 11.0746 258.638 12.6492 261.334 12.6492C264.312 12.6492 265.94 11.0746 265.94 8.69521Z" fill="var(--fill-0, white)"/>
<path id="Vector_8" d="M204.805 0H190.603V2.55433H204.805V0Z" fill="var(--fill-0, white)"/>
<path id="Vector_9" d="M236.012 4.74125H220.724V37.2477H236.012C247.728 37.2477 254.978 31.7716 254.978 20.9945C254.978 10.2173 247.78 4.74125 236.012 4.74125ZM236.012 31.6842H227.326V10.2698H236.012C243.822 10.2698 248.743 14.1188 248.743 20.9945C248.743 27.8702 243.857 31.6842 236.012 31.6842Z" fill="var(--fill-0, white)"/>
<path id="Vector_10" d="M294.082 4.00645C281.386 4.00645 269.478 10.7947 263.366 20.9945C257.254 31.2118 261.054 38 273.751 38C286.447 38 298.39 31.2118 304.502 20.9945C310.614 10.7772 306.814 4.00645 294.065 4.00645M297.917 20.9945C293.609 28.1851 285.606 32.419 277.095 32.419C268.585 32.419 265.678 28.1851 269.986 20.9945C274.294 13.8039 282.332 9.5175 290.79 9.5175C299.248 9.5175 302.225 13.7864 297.917 20.9945Z" fill="var(--fill-0, white)"/>
<path id="Vector_11" d="M352.398 4.74125L338.423 28.1501L328.038 4.74125H322.049L302.611 37.2477H309.213L323.205 13.8389L333.537 37.2477H339.579L359 4.74125H352.398Z" fill="var(--fill-0, white)"/>
</g>
<defs>
<clipPath id="clip0_0_42">
<rect width="359" height="38" fill="white"/>
</clipPath>
</defs>
</svg>
