<svg preserveAspectRatio="none" width="100%" height="100%" overflow="visible" style="display: block;" viewBox="0 0 15.999 15.5132" fill="none" xmlns="http://www.w3.org/2000/svg">
<g id="Group">
<path id="Vector" d="M5.60162 12.888L2.98884 12.8854V9.76451C2.98884 9.09767 3.24778 8.75061 3.819 8.67132H5.60163C6.8729 8.67132 7.69525 9.47203 7.69525 10.768C7.69525 12.099 6.8937 12.8868 5.60162 12.888ZM2.98884 4.4702V3.64869C2.98884 2.92988 3.29331 2.58801 3.96083 2.54382H5.29845C6.4448 2.54382 7.13183 3.22884 7.13183 4.37662C7.13183 5.25011 6.6608 6.2705 5.34009 6.2705H2.98884V4.4702ZM8.93788 7.58465L8.46555 7.31948L8.87804 6.96722C9.35816 6.55516 10.1623 5.62837 10.1623 4.02954C10.1623 1.58063 8.26126 0.00130529 5.31927 0.00130529H1.96219V0H1.57964C0.707847 0.0324998 0.00910693 0.740924 0 1.61703V15.5124H5.38563C8.65553 15.5124 10.7661 13.7342 10.7661 10.9799C10.7661 9.49673 10.0842 8.22937 8.93788 7.58465Z" fill="var(--fill-0, #2F5FD6)"/>
<path id="Vector_2" d="M12.1665 13.5929C12.1665 12.5315 13.0235 11.6727 14.0794 11.6727C15.138 11.6727 15.999 12.5315 15.999 13.5929C15.999 14.6531 15.138 15.5132 14.0794 15.5132C13.0235 15.5132 12.1665 14.6531 12.1665 13.5929Z" fill="var(--fill-0, #2F5FD6)"/>
</g>
</svg>
