<svg preserveAspectRatio="none" width="100%" height="100%" overflow="visible" style="display: block;" viewBox="0 0 538 57" fill="none" xmlns="http://www.w3.org/2000/svg">
<g id="Layer_1" clip-path="url(#clip0_0_4)">
<path id="Vector" d="M55.1647 7.11188H41.0979L9.89395 34.5622V7.11188H0V55.8716H9.89395V45.558L27.4511 30.6519L44.0898 55.8716H56.923L35.1931 24.1174L55.1647 7.11188Z" fill="var(--fill-0, white)"/>
<path id="Vector_2" d="M74.2702 7.11188H64.3763V55.8716H108.256V47.5262H74.2702V7.11188Z" fill="var(--fill-0, white)"/>
<path id="Vector_3" d="M143.502 7.11188L113.82 55.8716H125.236L131.22 45.558H167.725L173.787 55.8716H185.203L155.495 7.11188H143.502ZM136.048 37.2127L149.564 14.0138L162.948 37.2127H136.048Z" fill="var(--fill-0, white)"/>
<path id="Vector_4" d="M199.926 7.11188H190.032V55.8716H199.926V7.11188Z" fill="var(--fill-0, white)"/>
<path id="Vector_5" d="M246.955 7.11188H212.129V55.8716H222.023V36.8453H246.955C256.35 36.8453 263.331 31.9116 263.331 22.018C263.331 13.8564 257.059 7.11188 246.955 7.11188ZM245.223 28.7099H221.945V15.2735H245.223C250.944 15.2735 253.437 17.2942 253.437 22.018C253.437 26.7417 250.918 28.7099 245.223 28.7099Z" fill="var(--fill-0, white)"/>
<path id="Vector_6" d="M273.278 55.8716H319.257V47.5262H283.172V34.982H318.627V27.2403H283.172V15.4047H319.257V7.11188H273.278V55.8716Z" fill="var(--fill-0, white)"/>
<path id="Vector_7" d="M398.54 13.0428C398.54 9.5 396.099 7.11188 391.638 7.11188C387.596 7.11188 384.736 9.47376 384.736 13.0428C384.736 16.6119 387.596 18.9738 391.638 18.9738C396.099 18.9738 398.54 16.6119 398.54 13.0428Z" fill="var(--fill-0, white)"/>
<path id="Vector_8" d="M306.922 0H285.639V3.83149H306.922V0Z" fill="var(--fill-0, white)"/>
<path id="Vector_9" d="M353.689 7.11188H330.778V55.8716H353.689C371.246 55.8716 382.111 47.6575 382.111 31.4917C382.111 15.326 371.325 7.11188 353.689 7.11188ZM353.689 47.5262H340.672V15.4047H353.689C365.394 15.4047 372.768 21.1782 372.768 31.4917C372.768 41.8053 365.446 47.5262 353.689 47.5262Z" fill="var(--fill-0, white)"/>
<path id="Vector_10" d="M440.714 6.00967C421.687 6.00967 403.841 16.192 394.682 31.4917C385.523 46.8177 391.218 57 410.245 57C429.272 57 447.17 46.8177 456.329 31.4917C465.488 16.1657 459.793 6.00967 440.688 6.00967M446.461 31.4917C440.005 42.2776 428.012 48.6285 415.257 48.6285C402.503 48.6285 398.146 42.2776 404.602 31.4917C411.058 20.7058 423.104 14.2762 435.78 14.2762C448.456 14.2762 452.917 20.6796 446.461 31.4917Z" fill="var(--fill-0, white)"/>
<path id="Vector_11" d="M528.106 7.11188L507.163 42.2251L491.601 7.11188H482.625L453.495 55.8716H463.389L484.357 20.7583L499.841 55.8716H508.896L538 7.11188H528.106Z" fill="var(--fill-0, white)"/>
</g>
<defs>
<clipPath id="clip0_0_4">
<rect width="538" height="57" fill="white"/>
</clipPath>
</defs>
</svg>
