<svg preserveAspectRatio="xMidYMid meet" width="100%" height="100%" overflow="visible" style="display: block;" viewBox="12 14.85 16 10.3" fill="none" xmlns="http://www.w3.org/2000/svg">
<g id="1659378126-youtube-social.svg">
<path id="Vector" d="M26.6923 17.8534L28 16.4292H25.1C23.6483 15.4365 21.895 14.8583 19.9988 14.8583C18.105 14.8583 16.3566 15.4377 14.9072 16.4292H12L13.3077 17.8534C12.5061 18.5855 12.0036 19.64 12.0036 20.8109C12.0036 23.0205 13.7933 24.812 16.0006 24.812C17.0492 24.812 18.0046 24.4071 18.7178 23.7453L19.9988 25.1417L21.2799 23.7465C21.9931 24.4084 22.9472 24.812 23.9958 24.812C26.2031 24.812 27.9952 23.0205 27.9952 20.8109C27.9964 19.6388 27.4939 18.5843 26.6923 17.8534ZM16.0018 23.5187C14.5076 23.5187 13.2968 22.3066 13.2968 20.8109C13.2968 19.3152 14.5077 18.1031 16.0018 18.1031C17.496 18.1031 18.7068 19.3152 18.7068 20.8109C18.7068 22.3066 17.496 23.5187 16.0018 23.5187ZM20 20.7321C20 18.9503 18.7056 17.4207 16.9971 16.7674C17.921 16.3807 18.9345 16.1662 19.9988 16.1662C21.0631 16.1662 22.0778 16.3807 23.0017 16.7674C21.2944 17.4219 20 18.9504 20 20.7321ZM23.997 23.5187C22.5028 23.5187 21.292 22.3066 21.292 20.8109C21.292 19.3152 22.5028 18.1031 23.997 18.1031C25.4912 18.1031 26.702 19.3152 26.702 20.8109C26.702 22.3066 25.4912 23.5187 23.997 23.5187ZM23.997 19.3903C23.2136 19.3903 22.5791 20.0255 22.5791 20.8097C22.5791 21.5939 23.2136 22.229 23.997 22.229C24.7804 22.229 25.4149 21.5939 25.4149 20.8097C25.4148 20.0267 24.7804 19.3903 23.997 19.3903ZM17.4197 20.8109C17.4197 21.5951 16.7852 22.2302 16.0018 22.2302C15.2184 22.2302 14.5839 21.5951 14.5839 20.8109C14.5839 20.0267 15.2184 19.3915 16.0018 19.3915C16.7852 19.3903 17.4197 20.0267 17.4197 20.8109Z" fill="var(--fill-0, #2F5FD6)"/>
</g>
</svg>
